<?xml version="1.0" standalone="no"?>
<!DOCTYPE svg PUBLIC "-//W3C//DTD SVG 20010904//EN"
 "http://www.w3.org/TR/2001/REC-SVG-20010904/DTD/svg10.dtd">
<svg version="1.0" xmlns="http://www.w3.org/2000/svg"
 width="100.000000pt" height="100.000000pt" viewBox="0 0 100.000000 100.000000"
 preserveAspectRatio="xMidYMid meet">
<metadata>
Created by potrace 1.14, written by Peter Selinger 2001-2017
</metadata>
<g transform="translate(0.000000,100.000000) scale(0.100000,-0.100000)"
fill="#000000" stroke="none">
<path d="M29 963 c-13 -34 -6 -132 15 -190 14 -41 14 -43 -4 -43 -36 0 -17
-86 35 -156 15 -21 14 -22 -15 -33 -27 -9 -30 -13 -21 -30 12 -22 63 -61 80
-61 16 0 14 -15 -4 -30 -24 -20 -18 -27 33 -44 81 -28 159 -31 227 -8 33 11
61 19 63 18 1 -2 -7 -30 -20 -62 -28 -76 -28 -146 0 -201 23 -45 39 -54 47
-28 16 51 17 51 25 30 5 -11 9 -39 9 -62 1 -55 22 -57 55 -5 60 90 68 178 26
278 -11 26 -19 49 -17 51 2 2 20 -4 41 -12 60 -25 143 -29 215 -11 85 22 100
34 70 57 l-22 17 37 17 c51 25 89 85 54 85 -7 0 -19 4 -27 9 -12 8 -10 15 12
40 25 30 47 87 47 124 0 10 -8 17 -20 17 -23 0 -23 0 -9 37 21 55 30 142 19
183 -6 22 -14 40 -19 40 -4 0 -18 -22 -31 -49 -33 -72 -98 -134 -190 -182 -54
-28 -94 -57 -118 -86 -51 -61 -64 -54 -77 40 -6 43 -7 81 -3 83 10 7 11 54 1
54 -5 0 -19 -12 -32 -25 -13 -14 -29 -25 -37 -25 -7 0 -17 -7 -22 -16 -5 -8
-20 -21 -33 -28 -32 -15 -31 -41 1 -41 31 0 51 -45 30 -69 -18 -23 -35 -20
-50 10 -20 35 -72 75 -157 117 -75 38 -123 86 -162 164 -27 55 -39 60 -52 26z"/>
</g>
</svg>
